%
M48
M72
T01C0.01378
T02C0.03937
T03C0.04000
T04C0.04100
T05C0.13400
T06C0.20000
%
T01
X142050Y136250
X142050Y141250
X202050Y121250
X152050Y91250
X227050Y198750
X267050Y243750
T02
X92050Y278750
X92050Y102750
X92050Y112750
X92050Y122750
X92050Y132750
X92050Y142750
X92050Y152750
X92050Y162750
X92050Y172750
X92050Y182750
X92050Y192750
X92050Y208750
X92050Y218750
X92050Y228750
X92050Y238750
X92050Y248750
X92050Y258750
X92050Y268750
X282050Y268750
X282050Y258750
X282050Y248750
X282050Y238750
X282050Y228750
X282050Y208750
X282050Y198750
X282050Y188750
X282050Y178750
X282050Y168750
X282050Y158750
X282050Y148750
X282050Y138750
X282050Y278750
T03
X167050Y273750
X177050Y273750
X187050Y273750
X197050Y273750
X207050Y273750
X217050Y273750
X227050Y273750
X237050Y273750
X247050Y273750
T04
X85950Y38750
X85950Y28750
X103350Y28750
X103350Y38750
X103350Y48750
X103350Y58750
X85950Y58750
X85950Y48750
X120750Y48750
X120750Y58750
X138150Y58750
X138150Y48750
X138150Y38750
X138150Y28750
X120750Y28750
X120750Y38750
X155550Y38750
X155550Y28750
X155550Y48750
X155550Y58750
X228550Y38750
X228550Y28750
X245950Y28750
X245950Y38750
X245950Y48750
X245950Y58750
X263350Y58750
X263350Y48750
X263350Y38750
X263350Y28750
X280750Y28750
X280750Y38750
X280750Y48750
X280750Y58750
X298150Y58750
X298150Y48750
X298150Y38750
X298150Y28750
X228550Y48750
X228550Y58750
T05
X192050Y43750
T06
X39050Y43750
X340350Y43750
M30
