%
M48
M72
T01C0.03150
T02C0.03200
T03C0.03543
T04C0.04000
T05C0.04700
T06C0.05000
T07C0.06693
T08C0.11024
T09C0.15748
%
T01
X103236Y257281
X108236Y249656
X114236Y257281
X120236Y249656
X102420Y347982
X111003Y343457
X113383Y352863
X121052Y347931
X137853Y340108
X146436Y335583
X156485Y340057
X148816Y344989
X177223Y340108
X188186Y344989
X195855Y340057
X185806Y335583
X216594Y340108
X225176Y335583
X235225Y340057
X227556Y344989
X255964Y340108
X264546Y335583
X274595Y340057
X266926Y344989
X295334Y340108
X306296Y344989
X313965Y340057
X303916Y335583
X334704Y340108
X343287Y335583
X353336Y340057
X345666Y344989
X374074Y340108
X382657Y335583
X392706Y340057
X385036Y344989
X413444Y340108
X424407Y344989
X432076Y340057
X422027Y335583
X452814Y340108
X461397Y335583
X471446Y340057
X463777Y344989
X492184Y340108
X503147Y344989
X510816Y340057
X500767Y335583
X527617Y347982
X536200Y343457
X538580Y352863
X546249Y347931
X540433Y257281
X545433Y249656
X534433Y249656
X528433Y257281
T02
X609925Y225909
X589925Y225909
X578429Y225909
X558429Y225909
T03
X548744Y308587
X548744Y288902
T04
X194984Y253587
X204984Y253587
X214984Y253587
X438984Y43587
X448984Y43587
X458984Y43587
T05
X493626Y195531
X493626Y303531
T06
X598114Y281028
X588114Y281028
X578114Y281028
X578114Y249531
X588114Y249531
X598114Y249531
T07
X607642Y324335
X592051Y324335
X576461Y324335
T08
X197484Y218587
X292484Y253587
X362484Y253587
X457484Y218587
X457484Y148587
X362484Y148587
X292484Y148587
X197484Y148587
X197484Y78587
X292484Y43587
X362484Y43587
X457484Y78587
T09
X48744Y324335
X651106Y324335
X158980Y36933
X489689Y36933
M30
