M48
;GenerationSoftware,Autodesk,EAGLE,8.6.1*%
;CreationDate,2018-05-08T23:05:54Z*%
FMAT,2
ICI,OFF
METRIC,TZ,000.000
T9C0.350
T8C1.000
T7C1.016
T6C1.041
T5C2.540
T4C3.048
T3C3.404
T2C3.556
T1C5.080
%
G90
M71
T1
X69418Y-69850
X-7112Y-69850
T2
X49530Y-7620
T3
X31750Y-69850
T4
X6274Y-58344
X54661Y-59690
T5
X21590Y-7645
T6
X49860Y-66040
X54280Y-66040
X58699Y-66040
X45441Y-68580
X49860Y-68580
X22479Y-68580
X54280Y-68580
X58699Y-68580
X45441Y-71120
X49860Y-71120
X54280Y-71120
X58699Y-71120
X45441Y-73660
X49860Y-73660
X54280Y-73660
X58699Y-73660
X22479Y-66040
X22479Y-71120
X22479Y-73660
X18059Y-66040
X13640Y-66040
X9220Y-66040
X4801Y-66040
X18059Y-68580
X13640Y-68580
X9220Y-68580
X4801Y-68580
X18059Y-71120
X13640Y-71120
X9220Y-71120
X4801Y-71120
X18059Y-73660
X13640Y-73660
X9220Y-73660
X4801Y-73660
X41021Y-68580
X41021Y-66040
X41021Y-71120
X41021Y-73660
X45441Y-66040
T7
X25400Y-11430
X35560Y-11430
X45720Y-11430
X40640Y-11430
X43180Y-11430
X38100Y-11430
X27940Y-11430
X30480Y-11430
X33020Y-11430
T8
X54610Y-38100
X54610Y-40640
X6350Y-52324
X6350Y-54864
X54610Y-43180
X54610Y-45720
X6350Y-20320
X54610Y-22860
X6350Y-17780
X6350Y-15240
X6350Y-12700
X6350Y-10160
X6350Y-22860
X6350Y-25400
X6350Y-27940
X6350Y-32004
X6350Y-34544
X6350Y-37084
X6350Y-39624
X6350Y-42164
X6350Y-44704
X6350Y-47244
X6350Y-49784
X54610Y-20320
X54610Y-17780
X54610Y-15240
X54610Y-12700
X54610Y-10160
X54610Y-27940
X54610Y-30480
X54610Y-33020
X54610Y-35560
T9
X19050Y-46355
X21590Y-57785
X34290Y-50165
X50800Y-19050
X19050Y-45085
X40640Y-30480
M30