G04 EAGLE Gerber X2 export*
%TF.Part,Single*%
%TF.FileFunction,Profile,NP*%
%TF.FilePolarity,Positive*%
%TF.GenerationSoftware,Autodesk,EAGLE,8.6.1*%
%TF.CreationDate,2018-05-08T23:05:54Z*%
G75*
%MOMM*%
%FSLAX34Y34*%
%LPD*%
%AMOC8*
5,1,8,0,0,1.08239X$1,22.5*%
G01*
%ADD10C,0.254000*%


D10*
X-127000Y-800100D02*
X749300Y-800100D01*
X749300Y-685800D01*
X698500Y-635000D01*
X571500Y-635000D01*
X571500Y-76200D01*
X546100Y-76200D01*
X520700Y-50800D01*
X190500Y-50800D01*
X165100Y-76200D01*
X50800Y-76200D01*
X38100Y-88900D01*
X38100Y-635000D01*
X-76200Y-635000D01*
X-127000Y-685800D01*
X-127000Y-800100D01*
X77978Y-583982D02*
X77900Y-585068D01*
X77745Y-586146D01*
X77514Y-587209D01*
X77207Y-588254D01*
X76827Y-589274D01*
X76375Y-590264D01*
X75853Y-591219D01*
X75264Y-592135D01*
X74612Y-593007D01*
X73899Y-593829D01*
X73129Y-594599D01*
X72307Y-595312D01*
X71435Y-595964D01*
X70519Y-596553D01*
X69564Y-597075D01*
X68574Y-597527D01*
X67554Y-597907D01*
X66509Y-598214D01*
X65446Y-598445D01*
X64368Y-598600D01*
X63282Y-598678D01*
X62194Y-598678D01*
X61108Y-598600D01*
X60030Y-598445D01*
X58967Y-598214D01*
X57922Y-597907D01*
X56902Y-597527D01*
X55912Y-597075D01*
X54957Y-596553D01*
X54041Y-595964D01*
X53169Y-595312D01*
X52347Y-594599D01*
X51577Y-593829D01*
X50864Y-593007D01*
X50212Y-592135D01*
X49623Y-591219D01*
X49101Y-590264D01*
X48649Y-589274D01*
X48269Y-588254D01*
X47962Y-587209D01*
X47731Y-586146D01*
X47576Y-585068D01*
X47498Y-583982D01*
X47498Y-582894D01*
X47576Y-581808D01*
X47731Y-580730D01*
X47962Y-579667D01*
X48269Y-578622D01*
X48649Y-577602D01*
X49101Y-576612D01*
X49623Y-575657D01*
X50212Y-574741D01*
X50864Y-573869D01*
X51577Y-573047D01*
X52347Y-572277D01*
X53169Y-571564D01*
X54041Y-570912D01*
X54957Y-570323D01*
X55912Y-569801D01*
X56902Y-569349D01*
X57922Y-568969D01*
X58967Y-568662D01*
X60030Y-568431D01*
X61108Y-568276D01*
X62194Y-568198D01*
X63282Y-568198D01*
X64368Y-568276D01*
X65446Y-568431D01*
X66509Y-568662D01*
X67554Y-568969D01*
X68574Y-569349D01*
X69564Y-569801D01*
X70519Y-570323D01*
X71435Y-570912D01*
X72307Y-571564D01*
X73129Y-572277D01*
X73899Y-573047D01*
X74612Y-573869D01*
X75264Y-574741D01*
X75853Y-575657D01*
X76375Y-576612D01*
X76827Y-577602D01*
X77207Y-578622D01*
X77514Y-579667D01*
X77745Y-580730D01*
X77900Y-581808D01*
X77978Y-582894D01*
X77978Y-583982D01*
X561848Y-597444D02*
X561770Y-598530D01*
X561615Y-599608D01*
X561384Y-600671D01*
X561077Y-601716D01*
X560697Y-602736D01*
X560245Y-603726D01*
X559723Y-604681D01*
X559134Y-605597D01*
X558482Y-606469D01*
X557769Y-607291D01*
X556999Y-608061D01*
X556177Y-608774D01*
X555305Y-609426D01*
X554389Y-610015D01*
X553434Y-610537D01*
X552444Y-610989D01*
X551424Y-611369D01*
X550379Y-611676D01*
X549316Y-611907D01*
X548238Y-612062D01*
X547152Y-612140D01*
X546064Y-612140D01*
X544978Y-612062D01*
X543900Y-611907D01*
X542837Y-611676D01*
X541792Y-611369D01*
X540772Y-610989D01*
X539782Y-610537D01*
X538827Y-610015D01*
X537911Y-609426D01*
X537039Y-608774D01*
X536217Y-608061D01*
X535447Y-607291D01*
X534734Y-606469D01*
X534082Y-605597D01*
X533493Y-604681D01*
X532971Y-603726D01*
X532519Y-602736D01*
X532139Y-601716D01*
X531832Y-600671D01*
X531601Y-599608D01*
X531446Y-598530D01*
X531368Y-597444D01*
X531368Y-596356D01*
X531446Y-595270D01*
X531601Y-594192D01*
X531832Y-593129D01*
X532139Y-592084D01*
X532519Y-591064D01*
X532971Y-590074D01*
X533493Y-589119D01*
X534082Y-588203D01*
X534734Y-587331D01*
X535447Y-586509D01*
X536217Y-585739D01*
X537039Y-585026D01*
X537911Y-584374D01*
X538827Y-583785D01*
X539782Y-583263D01*
X540772Y-582811D01*
X541792Y-582431D01*
X542837Y-582124D01*
X543900Y-581893D01*
X544978Y-581738D01*
X546064Y-581660D01*
X547152Y-581660D01*
X548238Y-581738D01*
X549316Y-581893D01*
X550379Y-582124D01*
X551424Y-582431D01*
X552444Y-582811D01*
X553434Y-583263D01*
X554389Y-583785D01*
X555305Y-584374D01*
X556177Y-585026D01*
X556999Y-585739D01*
X557769Y-586509D01*
X558482Y-587331D01*
X559134Y-588203D01*
X559723Y-589119D01*
X560245Y-590074D01*
X560697Y-591064D01*
X561077Y-592084D01*
X561384Y-593129D01*
X561615Y-594192D01*
X561770Y-595270D01*
X561848Y-596356D01*
X561848Y-597444D01*
X513080Y-76782D02*
X513004Y-77944D01*
X512852Y-79098D01*
X512625Y-80240D01*
X512324Y-81364D01*
X511949Y-82466D01*
X511504Y-83542D01*
X510989Y-84586D01*
X510407Y-85594D01*
X509760Y-86562D01*
X509052Y-87486D01*
X508284Y-88361D01*
X507461Y-89184D01*
X506586Y-89952D01*
X505662Y-90660D01*
X504694Y-91307D01*
X503686Y-91889D01*
X502642Y-92404D01*
X501566Y-92849D01*
X500464Y-93224D01*
X499340Y-93525D01*
X498198Y-93752D01*
X497044Y-93904D01*
X495882Y-93980D01*
X494718Y-93980D01*
X493556Y-93904D01*
X492402Y-93752D01*
X491260Y-93525D01*
X490136Y-93224D01*
X489034Y-92849D01*
X487958Y-92404D01*
X486914Y-91889D01*
X485906Y-91307D01*
X484938Y-90660D01*
X484014Y-89952D01*
X483139Y-89184D01*
X482316Y-88361D01*
X481549Y-87486D01*
X480840Y-86562D01*
X480193Y-85594D01*
X479611Y-84586D01*
X479096Y-83542D01*
X478651Y-82466D01*
X478277Y-81364D01*
X477975Y-80240D01*
X477748Y-79098D01*
X477596Y-77944D01*
X477520Y-76782D01*
X477520Y-75618D01*
X477596Y-74456D01*
X477748Y-73302D01*
X477975Y-72160D01*
X478277Y-71036D01*
X478651Y-69934D01*
X479096Y-68858D01*
X479611Y-67814D01*
X480193Y-66806D01*
X480840Y-65838D01*
X481549Y-64914D01*
X482316Y-64039D01*
X483139Y-63216D01*
X484014Y-62449D01*
X484938Y-61740D01*
X485906Y-61093D01*
X486914Y-60511D01*
X487958Y-59996D01*
X489034Y-59551D01*
X490136Y-59177D01*
X491260Y-58875D01*
X492402Y-58648D01*
X493556Y-58496D01*
X494718Y-58420D01*
X495882Y-58420D01*
X497044Y-58496D01*
X498198Y-58648D01*
X499340Y-58875D01*
X500464Y-59177D01*
X501566Y-59551D01*
X502642Y-59996D01*
X503686Y-60511D01*
X504694Y-61093D01*
X505662Y-61740D01*
X506586Y-62449D01*
X507461Y-63216D01*
X508284Y-64039D01*
X509052Y-64914D01*
X509760Y-65838D01*
X510407Y-66806D01*
X510989Y-67814D01*
X511504Y-68858D01*
X511949Y-69934D01*
X512324Y-71036D01*
X512625Y-72160D01*
X512852Y-73302D01*
X513004Y-74456D01*
X513080Y-75618D01*
X513080Y-76782D01*
X228600Y-76953D02*
X228522Y-77948D01*
X228366Y-78934D01*
X228133Y-79904D01*
X227824Y-80853D01*
X227442Y-81775D01*
X226989Y-82664D01*
X226468Y-83515D01*
X225881Y-84323D01*
X225233Y-85081D01*
X224527Y-85787D01*
X223769Y-86435D01*
X222961Y-87022D01*
X222110Y-87543D01*
X221221Y-87996D01*
X220299Y-88378D01*
X219350Y-88687D01*
X218380Y-88920D01*
X217394Y-89076D01*
X216399Y-89154D01*
X215401Y-89154D01*
X214406Y-89076D01*
X213420Y-88920D01*
X212450Y-88687D01*
X211501Y-88378D01*
X210579Y-87996D01*
X209690Y-87543D01*
X208839Y-87022D01*
X208031Y-86435D01*
X207273Y-85787D01*
X206567Y-85081D01*
X205919Y-84323D01*
X205332Y-83515D01*
X204811Y-82664D01*
X204358Y-81775D01*
X203976Y-80853D01*
X203667Y-79904D01*
X203434Y-78934D01*
X203278Y-77948D01*
X203200Y-76953D01*
X203200Y-75955D01*
X203278Y-74960D01*
X203434Y-73974D01*
X203667Y-73004D01*
X203976Y-72055D01*
X204358Y-71133D01*
X204811Y-70244D01*
X205332Y-69393D01*
X205919Y-68585D01*
X206567Y-67827D01*
X207273Y-67121D01*
X208031Y-66473D01*
X208839Y-65886D01*
X209690Y-65365D01*
X210579Y-64912D01*
X211501Y-64530D01*
X212450Y-64221D01*
X213420Y-63988D01*
X214406Y-63832D01*
X215401Y-63754D01*
X216399Y-63754D01*
X217394Y-63832D01*
X218380Y-63988D01*
X219350Y-64221D01*
X220299Y-64530D01*
X221221Y-64912D01*
X222110Y-65365D01*
X222961Y-65886D01*
X223769Y-66473D01*
X224527Y-67121D01*
X225233Y-67827D01*
X225881Y-68585D01*
X226468Y-69393D01*
X226989Y-70244D01*
X227442Y-71133D01*
X227824Y-72055D01*
X228133Y-73004D01*
X228366Y-73974D01*
X228522Y-74960D01*
X228600Y-75955D01*
X228600Y-76953D01*
X77978Y-583982D02*
X77900Y-585068D01*
X77745Y-586146D01*
X77514Y-587209D01*
X77207Y-588254D01*
X76827Y-589274D01*
X76375Y-590264D01*
X75853Y-591219D01*
X75264Y-592135D01*
X74612Y-593007D01*
X73899Y-593829D01*
X73129Y-594599D01*
X72307Y-595312D01*
X71435Y-595964D01*
X70519Y-596553D01*
X69564Y-597075D01*
X68574Y-597527D01*
X67554Y-597907D01*
X66509Y-598214D01*
X65446Y-598445D01*
X64368Y-598600D01*
X63282Y-598678D01*
X62194Y-598678D01*
X61108Y-598600D01*
X60030Y-598445D01*
X58967Y-598214D01*
X57922Y-597907D01*
X56902Y-597527D01*
X55912Y-597075D01*
X54957Y-596553D01*
X54041Y-595964D01*
X53169Y-595312D01*
X52347Y-594599D01*
X51577Y-593829D01*
X50864Y-593007D01*
X50212Y-592135D01*
X49623Y-591219D01*
X49101Y-590264D01*
X48649Y-589274D01*
X48269Y-588254D01*
X47962Y-587209D01*
X47731Y-586146D01*
X47576Y-585068D01*
X47498Y-583982D01*
X47498Y-582894D01*
X47576Y-581808D01*
X47731Y-580730D01*
X47962Y-579667D01*
X48269Y-578622D01*
X48649Y-577602D01*
X49101Y-576612D01*
X49623Y-575657D01*
X50212Y-574741D01*
X50864Y-573869D01*
X51577Y-573047D01*
X52347Y-572277D01*
X53169Y-571564D01*
X54041Y-570912D01*
X54957Y-570323D01*
X55912Y-569801D01*
X56902Y-569349D01*
X57922Y-568969D01*
X58967Y-568662D01*
X60030Y-568431D01*
X61108Y-568276D01*
X62194Y-568198D01*
X63282Y-568198D01*
X64368Y-568276D01*
X65446Y-568431D01*
X66509Y-568662D01*
X67554Y-568969D01*
X68574Y-569349D01*
X69564Y-569801D01*
X70519Y-570323D01*
X71435Y-570912D01*
X72307Y-571564D01*
X73129Y-572277D01*
X73899Y-573047D01*
X74612Y-573869D01*
X75264Y-574741D01*
X75853Y-575657D01*
X76375Y-576612D01*
X76827Y-577602D01*
X77207Y-578622D01*
X77514Y-579667D01*
X77745Y-580730D01*
X77900Y-581808D01*
X77978Y-582894D01*
X77978Y-583982D01*
X561848Y-597444D02*
X561770Y-598530D01*
X561615Y-599608D01*
X561384Y-600671D01*
X561077Y-601716D01*
X560697Y-602736D01*
X560245Y-603726D01*
X559723Y-604681D01*
X559134Y-605597D01*
X558482Y-606469D01*
X557769Y-607291D01*
X556999Y-608061D01*
X556177Y-608774D01*
X555305Y-609426D01*
X554389Y-610015D01*
X553434Y-610537D01*
X552444Y-610989D01*
X551424Y-611369D01*
X550379Y-611676D01*
X549316Y-611907D01*
X548238Y-612062D01*
X547152Y-612140D01*
X546064Y-612140D01*
X544978Y-612062D01*
X543900Y-611907D01*
X542837Y-611676D01*
X541792Y-611369D01*
X540772Y-610989D01*
X539782Y-610537D01*
X538827Y-610015D01*
X537911Y-609426D01*
X537039Y-608774D01*
X536217Y-608061D01*
X535447Y-607291D01*
X534734Y-606469D01*
X534082Y-605597D01*
X533493Y-604681D01*
X532971Y-603726D01*
X532519Y-602736D01*
X532139Y-601716D01*
X531832Y-600671D01*
X531601Y-599608D01*
X531446Y-598530D01*
X531368Y-597444D01*
X531368Y-596356D01*
X531446Y-595270D01*
X531601Y-594192D01*
X531832Y-593129D01*
X532139Y-592084D01*
X532519Y-591064D01*
X532971Y-590074D01*
X533493Y-589119D01*
X534082Y-588203D01*
X534734Y-587331D01*
X535447Y-586509D01*
X536217Y-585739D01*
X537039Y-585026D01*
X537911Y-584374D01*
X538827Y-583785D01*
X539782Y-583263D01*
X540772Y-582811D01*
X541792Y-582431D01*
X542837Y-582124D01*
X543900Y-581893D01*
X544978Y-581738D01*
X546064Y-581660D01*
X547152Y-581660D01*
X548238Y-581738D01*
X549316Y-581893D01*
X550379Y-582124D01*
X551424Y-582431D01*
X552444Y-582811D01*
X553434Y-583263D01*
X554389Y-583785D01*
X555305Y-584374D01*
X556177Y-585026D01*
X556999Y-585739D01*
X557769Y-586509D01*
X558482Y-587331D01*
X559134Y-588203D01*
X559723Y-589119D01*
X560245Y-590074D01*
X560697Y-591064D01*
X561077Y-592084D01*
X561384Y-593129D01*
X561615Y-594192D01*
X561770Y-595270D01*
X561848Y-596356D01*
X561848Y-597444D01*
X513080Y-76782D02*
X513004Y-77944D01*
X512852Y-79098D01*
X512625Y-80240D01*
X512324Y-81364D01*
X511949Y-82466D01*
X511504Y-83542D01*
X510989Y-84586D01*
X510407Y-85594D01*
X509760Y-86562D01*
X509052Y-87486D01*
X508284Y-88361D01*
X507461Y-89184D01*
X506586Y-89952D01*
X505662Y-90660D01*
X504694Y-91307D01*
X503686Y-91889D01*
X502642Y-92404D01*
X501566Y-92849D01*
X500464Y-93224D01*
X499340Y-93525D01*
X498198Y-93752D01*
X497044Y-93904D01*
X495882Y-93980D01*
X494718Y-93980D01*
X493556Y-93904D01*
X492402Y-93752D01*
X491260Y-93525D01*
X490136Y-93224D01*
X489034Y-92849D01*
X487958Y-92404D01*
X486914Y-91889D01*
X485906Y-91307D01*
X484938Y-90660D01*
X484014Y-89952D01*
X483139Y-89184D01*
X482316Y-88361D01*
X481549Y-87486D01*
X480840Y-86562D01*
X480193Y-85594D01*
X479611Y-84586D01*
X479096Y-83542D01*
X478651Y-82466D01*
X478277Y-81364D01*
X477975Y-80240D01*
X477748Y-79098D01*
X477596Y-77944D01*
X477520Y-76782D01*
X477520Y-75618D01*
X477596Y-74456D01*
X477748Y-73302D01*
X477975Y-72160D01*
X478277Y-71036D01*
X478651Y-69934D01*
X479096Y-68858D01*
X479611Y-67814D01*
X480193Y-66806D01*
X480840Y-65838D01*
X481549Y-64914D01*
X482316Y-64039D01*
X483139Y-63216D01*
X484014Y-62449D01*
X484938Y-61740D01*
X485906Y-61093D01*
X486914Y-60511D01*
X487958Y-59996D01*
X489034Y-59551D01*
X490136Y-59177D01*
X491260Y-58875D01*
X492402Y-58648D01*
X493556Y-58496D01*
X494718Y-58420D01*
X495882Y-58420D01*
X497044Y-58496D01*
X498198Y-58648D01*
X499340Y-58875D01*
X500464Y-59177D01*
X501566Y-59551D01*
X502642Y-59996D01*
X503686Y-60511D01*
X504694Y-61093D01*
X505662Y-61740D01*
X506586Y-62449D01*
X507461Y-63216D01*
X508284Y-64039D01*
X509052Y-64914D01*
X509760Y-65838D01*
X510407Y-66806D01*
X510989Y-67814D01*
X511504Y-68858D01*
X511949Y-69934D01*
X512324Y-71036D01*
X512625Y-72160D01*
X512852Y-73302D01*
X513004Y-74456D01*
X513080Y-75618D01*
X513080Y-76782D01*
X228600Y-76953D02*
X228522Y-77948D01*
X228366Y-78934D01*
X228133Y-79904D01*
X227824Y-80853D01*
X227442Y-81775D01*
X226989Y-82664D01*
X226468Y-83515D01*
X225881Y-84323D01*
X225233Y-85081D01*
X224527Y-85787D01*
X223769Y-86435D01*
X222961Y-87022D01*
X222110Y-87543D01*
X221221Y-87996D01*
X220299Y-88378D01*
X219350Y-88687D01*
X218380Y-88920D01*
X217394Y-89076D01*
X216399Y-89154D01*
X215401Y-89154D01*
X214406Y-89076D01*
X213420Y-88920D01*
X212450Y-88687D01*
X211501Y-88378D01*
X210579Y-87996D01*
X209690Y-87543D01*
X208839Y-87022D01*
X208031Y-86435D01*
X207273Y-85787D01*
X206567Y-85081D01*
X205919Y-84323D01*
X205332Y-83515D01*
X204811Y-82664D01*
X204358Y-81775D01*
X203976Y-80853D01*
X203667Y-79904D01*
X203434Y-78934D01*
X203278Y-77948D01*
X203200Y-76953D01*
X203200Y-75955D01*
X203278Y-74960D01*
X203434Y-73974D01*
X203667Y-73004D01*
X203976Y-72055D01*
X204358Y-71133D01*
X204811Y-70244D01*
X205332Y-69393D01*
X205919Y-68585D01*
X206567Y-67827D01*
X207273Y-67121D01*
X208031Y-66473D01*
X208839Y-65886D01*
X209690Y-65365D01*
X210579Y-64912D01*
X211501Y-64530D01*
X212450Y-64221D01*
X213420Y-63988D01*
X214406Y-63832D01*
X215401Y-63754D01*
X216399Y-63754D01*
X217394Y-63832D01*
X218380Y-63988D01*
X219350Y-64221D01*
X220299Y-64530D01*
X221221Y-64912D01*
X222110Y-65365D01*
X222961Y-65886D01*
X223769Y-66473D01*
X224527Y-67121D01*
X225233Y-67827D01*
X225881Y-68585D01*
X226468Y-69393D01*
X226989Y-70244D01*
X227442Y-71133D01*
X227824Y-72055D01*
X228133Y-73004D01*
X228366Y-73974D01*
X228522Y-74960D01*
X228600Y-75955D01*
X228600Y-76953D01*
X334518Y-699057D02*
X334445Y-700169D01*
X334300Y-701274D01*
X334082Y-702366D01*
X333794Y-703443D01*
X333436Y-704498D01*
X333009Y-705527D01*
X332517Y-706527D01*
X331959Y-707491D01*
X331340Y-708418D01*
X330662Y-709302D01*
X329927Y-710140D01*
X329140Y-710927D01*
X328302Y-711662D01*
X327418Y-712340D01*
X326491Y-712959D01*
X325527Y-713517D01*
X324527Y-714009D01*
X323498Y-714436D01*
X322443Y-714794D01*
X321366Y-715082D01*
X320274Y-715300D01*
X319169Y-715445D01*
X318057Y-715518D01*
X316943Y-715518D01*
X315831Y-715445D01*
X314726Y-715300D01*
X313634Y-715082D01*
X312557Y-714794D01*
X311502Y-714436D01*
X310473Y-714009D01*
X309473Y-713517D01*
X308509Y-712959D01*
X307582Y-712340D01*
X306698Y-711662D01*
X305860Y-710927D01*
X305073Y-710140D01*
X304338Y-709302D01*
X303660Y-708418D01*
X303041Y-707491D01*
X302483Y-706527D01*
X301991Y-705527D01*
X301564Y-704498D01*
X301206Y-703443D01*
X300918Y-702366D01*
X300700Y-701274D01*
X300555Y-700169D01*
X300482Y-699057D01*
X300482Y-697943D01*
X300555Y-696831D01*
X300700Y-695726D01*
X300918Y-694634D01*
X301206Y-693557D01*
X301564Y-692502D01*
X301991Y-691473D01*
X302483Y-690473D01*
X303041Y-689509D01*
X303660Y-688582D01*
X304338Y-687698D01*
X305073Y-686860D01*
X305860Y-686073D01*
X306698Y-685338D01*
X307582Y-684660D01*
X308509Y-684041D01*
X309473Y-683483D01*
X310473Y-682991D01*
X311502Y-682564D01*
X312557Y-682206D01*
X313634Y-681918D01*
X314726Y-681700D01*
X315831Y-681555D01*
X316943Y-681482D01*
X318057Y-681482D01*
X319169Y-681555D01*
X320274Y-681700D01*
X321366Y-681918D01*
X322443Y-682206D01*
X323498Y-682564D01*
X324527Y-682991D01*
X325527Y-683483D01*
X326491Y-684041D01*
X327418Y-684660D01*
X328302Y-685338D01*
X329140Y-686073D01*
X329927Y-686860D01*
X330662Y-687698D01*
X331340Y-688582D01*
X331959Y-689509D01*
X332517Y-690473D01*
X333009Y-691473D01*
X333436Y-692502D01*
X333794Y-693557D01*
X334082Y-694634D01*
X334300Y-695726D01*
X334445Y-696831D01*
X334518Y-697943D01*
X334518Y-699057D01*
X719582Y-699213D02*
X719502Y-700636D01*
X719343Y-702052D01*
X719104Y-703457D01*
X718787Y-704847D01*
X718392Y-706216D01*
X717921Y-707562D01*
X717376Y-708879D01*
X716757Y-710163D01*
X716068Y-711410D01*
X715310Y-712617D01*
X714485Y-713779D01*
X713596Y-714894D01*
X712646Y-715957D01*
X711639Y-716964D01*
X710576Y-717914D01*
X709461Y-718803D01*
X708299Y-719628D01*
X707092Y-720386D01*
X705845Y-721075D01*
X704561Y-721694D01*
X703244Y-722239D01*
X701898Y-722710D01*
X700529Y-723105D01*
X699139Y-723422D01*
X697734Y-723661D01*
X696318Y-723820D01*
X694895Y-723900D01*
X693469Y-723900D01*
X692046Y-723820D01*
X690630Y-723661D01*
X689225Y-723422D01*
X687835Y-723105D01*
X686466Y-722710D01*
X685120Y-722239D01*
X683803Y-721694D01*
X682519Y-721075D01*
X681272Y-720386D01*
X680065Y-719628D01*
X678903Y-718803D01*
X677788Y-717914D01*
X676725Y-716964D01*
X675718Y-715957D01*
X674768Y-714894D01*
X673879Y-713779D01*
X673054Y-712617D01*
X672296Y-711410D01*
X671607Y-710163D01*
X670988Y-708879D01*
X670443Y-707562D01*
X669972Y-706216D01*
X669577Y-704847D01*
X669260Y-703457D01*
X669022Y-702052D01*
X668862Y-700636D01*
X668782Y-699213D01*
X668782Y-697787D01*
X668862Y-696364D01*
X669022Y-694948D01*
X669260Y-693543D01*
X669577Y-692153D01*
X669972Y-690784D01*
X670443Y-689438D01*
X670988Y-688121D01*
X671607Y-686837D01*
X672296Y-685590D01*
X673054Y-684383D01*
X673879Y-683221D01*
X674768Y-682106D01*
X675718Y-681043D01*
X676725Y-680036D01*
X677788Y-679086D01*
X678903Y-678197D01*
X680065Y-677372D01*
X681272Y-676614D01*
X682519Y-675925D01*
X683803Y-675306D01*
X685120Y-674761D01*
X686466Y-674290D01*
X687835Y-673895D01*
X689225Y-673578D01*
X690630Y-673340D01*
X692046Y-673180D01*
X693469Y-673100D01*
X694895Y-673100D01*
X696318Y-673180D01*
X697734Y-673340D01*
X699139Y-673578D01*
X700529Y-673895D01*
X701898Y-674290D01*
X703244Y-674761D01*
X704561Y-675306D01*
X705845Y-675925D01*
X707092Y-676614D01*
X708299Y-677372D01*
X709461Y-678197D01*
X710576Y-679086D01*
X711639Y-680036D01*
X712646Y-681043D01*
X713596Y-682106D01*
X714485Y-683221D01*
X715310Y-684383D01*
X716068Y-685590D01*
X716757Y-686837D01*
X717376Y-688121D01*
X717921Y-689438D01*
X718392Y-690784D01*
X718787Y-692153D01*
X719104Y-693543D01*
X719343Y-694948D01*
X719502Y-696364D01*
X719582Y-697787D01*
X719582Y-699213D01*
X-45720Y-699213D02*
X-45800Y-700636D01*
X-45960Y-702052D01*
X-46198Y-703457D01*
X-46515Y-704847D01*
X-46910Y-706216D01*
X-47381Y-707562D01*
X-47926Y-708879D01*
X-48545Y-710163D01*
X-49234Y-711410D01*
X-49992Y-712617D01*
X-50817Y-713779D01*
X-51706Y-714894D01*
X-52656Y-715957D01*
X-53663Y-716964D01*
X-54726Y-717914D01*
X-55841Y-718803D01*
X-57003Y-719628D01*
X-58210Y-720386D01*
X-59457Y-721075D01*
X-60741Y-721694D01*
X-62058Y-722239D01*
X-63404Y-722710D01*
X-64773Y-723105D01*
X-66163Y-723422D01*
X-67568Y-723661D01*
X-68984Y-723820D01*
X-70407Y-723900D01*
X-71833Y-723900D01*
X-73256Y-723820D01*
X-74672Y-723661D01*
X-76077Y-723422D01*
X-77467Y-723105D01*
X-78836Y-722710D01*
X-80182Y-722239D01*
X-81499Y-721694D01*
X-82783Y-721075D01*
X-84030Y-720386D01*
X-85237Y-719628D01*
X-86399Y-718803D01*
X-87514Y-717914D01*
X-88577Y-716964D01*
X-89584Y-715957D01*
X-90534Y-714894D01*
X-91423Y-713779D01*
X-92248Y-712617D01*
X-93006Y-711410D01*
X-93695Y-710163D01*
X-94314Y-708879D01*
X-94859Y-707562D01*
X-95330Y-706216D01*
X-95725Y-704847D01*
X-96042Y-703457D01*
X-96281Y-702052D01*
X-96440Y-700636D01*
X-96520Y-699213D01*
X-96520Y-697787D01*
X-96440Y-696364D01*
X-96281Y-694948D01*
X-96042Y-693543D01*
X-95725Y-692153D01*
X-95330Y-690784D01*
X-94859Y-689438D01*
X-94314Y-688121D01*
X-93695Y-686837D01*
X-93006Y-685590D01*
X-92248Y-684383D01*
X-91423Y-683221D01*
X-90534Y-682106D01*
X-89584Y-681043D01*
X-88577Y-680036D01*
X-87514Y-679086D01*
X-86399Y-678197D01*
X-85237Y-677372D01*
X-84030Y-676614D01*
X-82783Y-675925D01*
X-81499Y-675306D01*
X-80182Y-674761D01*
X-78836Y-674290D01*
X-77467Y-673895D01*
X-76077Y-673578D01*
X-74672Y-673340D01*
X-73256Y-673180D01*
X-71833Y-673100D01*
X-70407Y-673100D01*
X-68984Y-673180D01*
X-67568Y-673340D01*
X-66163Y-673578D01*
X-64773Y-673895D01*
X-63404Y-674290D01*
X-62058Y-674761D01*
X-60741Y-675306D01*
X-59457Y-675925D01*
X-58210Y-676614D01*
X-57003Y-677372D01*
X-55841Y-678197D01*
X-54726Y-679086D01*
X-53663Y-680036D01*
X-52656Y-681043D01*
X-51706Y-682106D01*
X-50817Y-683221D01*
X-49992Y-684383D01*
X-49234Y-685590D01*
X-48545Y-686837D01*
X-47926Y-688121D01*
X-47381Y-689438D01*
X-46910Y-690784D01*
X-46515Y-692153D01*
X-46198Y-693543D01*
X-45960Y-694948D01*
X-45800Y-696364D01*
X-45720Y-697787D01*
X-45720Y-699213D01*
M02*
