G04 EAGLE Gerber X2 export*
%TF.Part,Single*%
%TF.FileFunction,Soldermask,Bot,1*%
%TF.FilePolarity,Negative*%
%TF.GenerationSoftware,Autodesk,EAGLE,8.6.1*%
%TF.CreationDate,2018-05-08T23:05:54Z*%
G75*
%MOMM*%
%FSLAX34Y34*%
%LPD*%
%AMOC8*
5,1,8,0,0,1.08239X$1,22.5*%
G01*
%ADD10C,3.251200*%
%ADD11C,3.759200*%
%ADD12C,2.743200*%
%ADD13P,2.144431X8X112.500000*%
%ADD14C,3.606800*%
%ADD15C,5.283200*%
%ADD16C,1.765300*%
%ADD17P,2.034460X8X112.500000*%
%ADD18C,0.959600*%


D10*
X62738Y-583438D03*
X546608Y-596900D03*
D11*
X495300Y-76200D03*
D12*
X215900Y-76454D03*
D13*
X254000Y-114300D03*
X279400Y-114300D03*
X304800Y-114300D03*
X330200Y-114300D03*
X355600Y-114300D03*
X381000Y-114300D03*
X406400Y-114300D03*
X431800Y-114300D03*
X457200Y-114300D03*
D14*
X317500Y-698500D03*
D15*
X694182Y-698500D03*
X-71120Y-698500D03*
D16*
X224790Y-685800D03*
X224790Y-660400D03*
X224790Y-711200D03*
X224790Y-736600D03*
X180594Y-660400D03*
X136398Y-660400D03*
X92202Y-660400D03*
X48006Y-660400D03*
X180594Y-685800D03*
X136398Y-685800D03*
X92202Y-685800D03*
X48006Y-685800D03*
X180594Y-711200D03*
X136398Y-711200D03*
X92202Y-711200D03*
X48006Y-711200D03*
X180594Y-736600D03*
X136398Y-736600D03*
X92202Y-736600D03*
X48006Y-736600D03*
X410210Y-685800D03*
X410210Y-660400D03*
X410210Y-711200D03*
X410210Y-736600D03*
X454406Y-660400D03*
X498602Y-660400D03*
X542798Y-660400D03*
X586994Y-660400D03*
X454406Y-685800D03*
X498602Y-685800D03*
X542798Y-685800D03*
X586994Y-685800D03*
X454406Y-711200D03*
X498602Y-711200D03*
X542798Y-711200D03*
X586994Y-711200D03*
X454406Y-736600D03*
X498602Y-736600D03*
X542798Y-736600D03*
X586994Y-736600D03*
D17*
X63500Y-203200D03*
X546100Y-228600D03*
X63500Y-177800D03*
X63500Y-152400D03*
X63500Y-127000D03*
X63500Y-101600D03*
X63500Y-228600D03*
X63500Y-254000D03*
X63500Y-279400D03*
X63500Y-320040D03*
X63500Y-345440D03*
X63500Y-370840D03*
X63500Y-396240D03*
X63500Y-421640D03*
X63500Y-447040D03*
X63500Y-472440D03*
X63500Y-497840D03*
X546100Y-203200D03*
X546100Y-177800D03*
X546100Y-152400D03*
X546100Y-127000D03*
X546100Y-101600D03*
X546100Y-279400D03*
X546100Y-304800D03*
X546100Y-330200D03*
X546100Y-355600D03*
X546100Y-381000D03*
X546100Y-406400D03*
X63500Y-523240D03*
X63500Y-548640D03*
X546100Y-431800D03*
X546100Y-457200D03*
D18*
X406400Y-304800D03*
X190500Y-450850D03*
X190500Y-463550D03*
X215900Y-577850D03*
X342900Y-501650D03*
X508000Y-190500D03*
M02*
